<?xml version="1.0" encoding="UTF-8"?>
<svg id="OBJECTS" xmlns="http://www.w3.org/2000/svg" viewBox="0 0 642.99 449.47">
  <defs>
    <style>
      .cls-1, .cls-2 {
        fill: #fff;
      }

      .cls-3 {
        fill: #ce7e76;
      }

      .cls-4 {
        fill: #eec142;
      }

      .cls-5 {
        fill: #db958d;
      }

      .cls-6 {
        fill: #7a8db5;
      }

      .cls-7 {
        fill: #74c1bd;
      }

      .cls-8 {
        fill: #de7356;
      }

      .cls-9 {
        stroke-width: 1.76px;
      }

      .cls-9, .cls-10, .cls-11, .cls-12, .cls-13, .cls-14, .cls-15 {
        fill: none;
        stroke-linecap: round;
        stroke-miterlimit: 10;
      }

      .cls-9, .cls-10, .cls-12, .cls-13 {
        stroke: #c1eee6;
      }

      .cls-16, .cls-17, .cls-18 {
        fill: #2f3f5c;
      }

      .cls-17, .cls-19 {
        opacity: .1;
      }

      .cls-20 {
        fill: #5d77a6;
      }

      .cls-10 {
        stroke-width: 1.5px;
      }

      .cls-19, .cls-21 {
        fill: #4b6590;
      }

      .cls-21 {
        opacity: .15;
      }

      .cls-22 {
        fill: #ffc1b7;
      }

      .cls-23 {
        fill: #e8a196;
      }

      .cls-24 {
        fill: #6c8cbc;
      }

      .cls-25 {
        fill: #ffa398;
      }

      .cls-18 {
        opacity: .2;
      }

      .cls-26 {
        fill: #d3877f;
      }

      .cls-27 {
        fill: #88d2d0;
      }

      .cls-11 {
        stroke-width: 1.21px;
      }

      .cls-11, .cls-14, .cls-15 {
        stroke: #5d77a6;
      }

      .cls-2 {
        font-family: Poppins-Bold, Poppins;
        font-size: 35px;
        font-weight: 700;
        letter-spacing: .05em;
      }

      .cls-12 {
        stroke-width: 1.36px;
      }

      .cls-13 {
        stroke-width: 1.54px;
      }

      .cls-14 {
        stroke-width: 1.4px;
      }

      .cls-15 {
        stroke-width: 1.22px;
      }
    </style>
  </defs>
  <g>
    <g>
      <path class="cls-7" d="M560.12,156.17s4.42-39.07,27.94-21.03c18.93,14.52-29.8,55.33-15.52,56.47,14.27,1.14,32.99-19.08,34.75,1.87,1.75,20.95-54.29,29.15-42.54,41.72,2.65,2.84,10.71,.52,17.97,1.82,12.73,2.28,13.56,17.24-25.57,35.94-44.9,21.46-70.14,89.21-70.14,89.21l-.88-20.94s24.08-97.15,19.88-113.74c-4.21-16.59,10.59-34.64,25.82-4.72,3.26,6.4,9.15-2.19,6.14-12.1-4.53-14.93-18.13-36.61-5.05-43.19,21.76-10.94,16.74,50.59,27.2-11.33Z"/>
      <polyline class="cls-9" points="514 215.5 522.5 268.5 577.5 246.5"/>
      <path class="cls-9" d="M579.5,138s-94,204.5-94,233.5"/>
      <polyline class="cls-9" points="570 140 567.5 163 583 155"/>
      <polyline class="cls-9" points="535 172.5 546.5 210 598 196.5"/>
    </g>
    <g>
      <path class="cls-6" d="M592.05,259.97s30.32-9.5,23.48-20.33c-4.64-7.36-23.48,20.33-23.48,20.33Z"/>
      <path class="cls-6" d="M581.72,268.89s21.93-23,10.7-29.17c-7.63-4.19-10.7,29.17-10.7,29.17Z"/>
      <path class="cls-6" d="M574.83,276.31s12.56-26.5-.05-27.63c-8.57-.77,.05,27.63,.05,27.63Z"/>
      <path class="cls-6" d="M563.31,288.39s12.56-26.5-.05-27.63c-8.57-.77,.05,27.63,.05,27.63Z"/>
      <path class="cls-6" d="M552.94,302.24s14.51-23.37,2.05-24.9c-8.46-1.04-2.05,24.9-2.05,24.9Z"/>
      <path class="cls-6" d="M582.1,268.09s31.05,6.74,30.47-6.05c-.39-8.69-30.47,6.05-30.47,6.05Z"/>
      <path class="cls-6" d="M575.48,276.54s26.74,14.46,28.36,1.24c1.1-8.98-28.36-1.24-28.36-1.24Z"/>
      <path class="cls-6" d="M563.91,288.19s26.74,14.46,28.36,1.24c1.1-8.98-28.36-1.24-28.36-1.24Z"/>
      <path class="cls-6" d="M553.66,301.85s26.3,9.57,25.99-2.69c-.21-8.32-25.99,2.69-25.99,2.69Z"/>
      <path class="cls-11" d="M602.02,251.3s-58.94,45.06-81.28,109.15"/>
      <path class="cls-11" d="M606.27,263.94s-14.34,4.44-22.98,4.14c0,0,2.04-10.35,6.91-20.37"/>
      <path class="cls-11" d="M599.81,278.88s-18.45-.57-24.98-2.57l-.22-20.14"/>
      <path class="cls-11" d="M585.93,291.01l-22.01-2.82s-.93-11.55,.04-18.11"/>
      <path class="cls-11" d="M574.86,299.59s-13.14,2.67-21.2,2.26c0,0,1.52-12.48,1.07-20.17"/>
    </g>
    <g>
      <path class="cls-7" d="M451.94,397.47s89.4,11.84,102.06-2.47-21.71-12.67-19-26c2.71-13.33,49.23-1.98,59-15,9.77-13.02-24.06-13.36-18.27-25.99s64.6-32.67,36.27-55.01c-28.32-22.33-31.77,39.49-54.56,42.74-22.79,3.25-6.62-22.4-23.44-19.74-16.82,2.66-9.19,45.14-28,48-18.81,2.86-12.7-57.12-54.06,53.47Z"/>
      <g>
        <path class="cls-9" d="M443,399l8.94-1.53s88.06-45.47,145.06-107.47"/>
        <polyline class="cls-9" points="593 280 590 298 606 292"/>
        <polyline class="cls-9" points="534.7 309.01 527.35 351.24 573.26 349.41"/>
        <polyline class="cls-9" points="485.49 343.53 477.41 383.19 535.43 389.8"/>
      </g>
    </g>
    <g>
      <path class="cls-6" d="M548.12,357.7s30.2,5.07,28.95-9.74c-.84-10.06-28.95,9.74-28.95,9.74Z"/>
      <path class="cls-6" d="M532.73,361.35s34.86-11.95,26.6-24.29c-5.61-8.39-26.6,24.29-26.6,24.29Z"/>
      <path class="cls-6" d="M521.67,365.3s27.09-20.55,14.72-28.45c-8.4-5.37-14.72,28.45-14.72,28.45Z"/>
      <path class="cls-6" d="M533.55,360.74s28.35,23.54,34.59,10.06c4.24-9.16-34.59-10.06-34.59-10.06Z"/>
      <path class="cls-6" d="M522.22,365.89s19.79,29.18,28.52,16.44c5.93-8.65-28.52-16.44-28.52-16.44Z"/>
      <path class="cls-14" d="M563.03,354.11c-14.78,2.68-29.37,7.08-43.53,12.02-23.97,8.37-47.22,19.22-68.44,33.23"/>
      <path class="cls-14" d="M560.64,369.38s-17.13-3.09-25.86-8.02c0,0,7.63-9.56,18.01-17.27"/>
      <path class="cls-14" d="M546,381.3s-18.68-10.46-24.33-16l10.55-20.85"/>
    </g>
    <g>
      <path class="cls-7" d="M437,395s-44-28-75-46c-34.5-20.03-12-41,14-37,49.5,7.62-55-64-27-85.91,11.56-9.05,16,1.88,40,9.42,24,7.54-29-83.86,6-89.52,25.7-4.15,18.77,103.63,42,83.86,31-26.38,42.76,4.89,24,32.04-18.76,27.14-26.69,65.02-9,45.23,48-53.71,24,30.4-15,87.88Z"/>
      <g>
        <path class="cls-9" d="M396,167s41,218,42,240"/>
        <polyline class="cls-9" points="372 244 419 295 446 247"/>
        <polyline class="cls-9" points="391 183 402 200 408 178"/>
        <polyline class="cls-9" points="375 339 434 370 464 313"/>
      </g>
    </g>
    <g>
      <path class="cls-6" d="M539.05,109.45s25.95-16.25,15.19-26.5c-7.31-6.96-15.19,26.5-15.19,26.5Z"/>
      <path class="cls-6" d="M529.96,122.39s18.14-32.07,3.77-35.83c-9.76-2.55-3.77,35.83-3.77,35.83Z"/>
      <path class="cls-6" d="M524.31,132.69s6.62-33.35-7.87-31.05c-9.85,1.56,7.87,31.05,7.87,31.05Z"/>
      <path class="cls-6" d="M514.77,149.54s6.62-33.35-7.87-31.05c-9.85,1.56,7.87,31.05,7.87,31.05Z"/>
      <path class="cls-6" d="M507.03,168.05s9.7-30.39-4.75-28.58c-9.81,1.23,4.75,28.58,4.75,28.58Z"/>
      <path class="cls-6" d="M500.98,183.17s5.43-26.6-7.09-22.18c-8.51,3.01,7.09,22.18,7.09,22.18Z"/>
      <path class="cls-6" d="M495.68,197.03s3.48-23.34-7.18-18.92c-7.25,3.01,7.18,18.92,7.18,18.92Z"/>
      <path class="cls-6" d="M530.16,121.39s36.83-1.21,32.55-15.43c-2.91-9.67-32.55,15.43-32.55,15.43Z"/>
      <path class="cls-6" d="M525.11,132.77s34.17,8.69,32.24-6.63c-1.31-10.41-32.24,6.63-32.24,6.63Z"/>
      <path class="cls-6" d="M515.4,149.15s34.17,8.69,32.24-6.63c-1.31-10.41-32.24,6.63-32.24,6.63Z"/>
      <path class="cls-6" d="M507.74,167.41s32.29,3.31,28.47-10.38c-2.59-9.3-28.47,10.38-28.47,10.38Z"/>
      <path class="cls-6" d="M501.11,182.65s28.8,3.54,23.36-9.38c-3.7-8.78-23.36,9.38-23.36,9.38Z"/>
      <path class="cls-6" d="M496.07,196.64s23.8,2.93,19.31-7.75c-3.05-7.26-19.31,7.75-19.31,7.75Z"/>
      <path class="cls-14" d="M547.81,96.87s-53.53,67.36-60.5,145.76"/>
      <path class="cls-14" d="M556.16,109.88s-14.86,9.05-24.66,11.16c0,0-.63-12.21,2.01-24.87"/>
      <path class="cls-14" d="M553.13,128.51s-20.91,4.58-28.82,4.19l-5.95-22.59"/>
      <path class="cls-14" d="M540.95,146.08l-25.55,3.06s-4.32-12.72-5.09-20.38"/>
      <path class="cls-14" d="M530.94,158.87s-14.02,6.72-23.2,8.54c0,0-1.82-14.47-4.51-22.99"/>
      <path class="cls-14" d="M517.55,177.43l-16.43,5.22s-2.66-8.08-3.2-13.7"/>
      <path class="cls-14" d="M509.98,192.48s-10.22,1.64-14.3,4.55c0,0-3.73-12.32-4.55-13.07"/>
    </g>
    <g>
      <path class="cls-27" d="M519.91,237.28s24.85-25.5,13.73-35.31c-11.11-9.81-25.67-2.85-38.58,28.77-13.08,32.04-22.23-30.73-35.96-5.23-13.73,25.5,27.46,49.69,12.42,56.23-15.04,6.54-17.82-35.04-32.69-22.23-23.54,20.27,24.28,56.49,2.62,73.23-14.38,11.11-23.51-28.37-36.61-13.08-19.61,22.88,4.31,83.06,19.16,91.35,28.11,15.69,102.45-47.54,87.42-58-15.04-10.46-51.65,15.04-23.54-14.38,9.31-9.74,60.8-26.15,43.15-37.92-16.17-10.78-39.88,5.88-30.08-13.73,9.81-19.61,54.27-13.08,49.69-30.08-4.58-17-49.04,9.15-30.73-19.61Z"/>
      <path class="cls-9" d="M521.88,209.16s-74.26,129.26-93.88,201.84"/>
      <polyline class="cls-9" points="525.8 220.93 512.07 226.82 512.07 217.66"/>
      <polyline class="cls-9" points="525.15 260.16 489.19 271.93 470.88 241.85"/>
      <polyline class="cls-9" points="507.49 310.5 459.79 328.11 446.03 275.2"/>
      <line class="cls-9" x1="439.5" y1="285" x2="453.23" y2="296.77"/>
      <polyline class="cls-9" points="487.88 367.39 434.26 390.27 413.34 341.89"/>
    </g>
  </g>
  <g>
    <g>
      <path class="cls-6" d="M150.72,99.95s11.11-23.76-1.72-25.62c-8.72-1.26,1.72,25.62,1.72,25.62Z"/>
      <path class="cls-6" d="M150.79,113.76s-3.29-31.99-15.42-27.4c-8.24,3.12,15.42,27.4,15.42,27.4Z"/>
      <path class="cls-6" d="M151.97,123.94s-12.14-27.08-21.29-18.12c-6.22,6.09,21.29,18.12,21.29,18.12Z"/>
      <path class="cls-6" d="M153.7,140.75s-12.14-27.08-21.29-18.12c-6.22,6.09,21.29,18.12,21.29,18.12Z"/>
      <path class="cls-6" d="M150.43,112.94s25.6-19.47,15.37-27.43c-6.95-5.41-15.37,27.43-15.37,27.43Z"/>
      <path class="cls-6" d="M152.58,123.59s28.7-11.08,19.6-21.01c-6.19-6.75-19.6,21.01-19.6,21.01Z"/>
      <path class="cls-6" d="M153.94,140.15s28.7-11.08,19.6-21.01c-6.19-6.75-19.6,21.01-19.6,21.01Z"/>
      <path class="cls-15" d="M150.6,86.57s-4.06,74.98,30.59,134.3"/>
      <path class="cls-15" d="M163.11,91.61s-6,13.95-11.91,20.4c0,0-6.62-8.37-11.13-18.71"/>
      <path class="cls-15" d="M170.37,106.4s-12.57,13.83-18.39,17.54l-15.65-13.07"/>
      <path class="cls-15" d="M170.58,125.06l-16.64,15.09s-9.5-6.87-13.92-11.93"/>
    </g>
    <g>
      <path class="cls-7" d="M117.46,155.34s-21.73-22.31-12.01-30.89c9.72-8.58,22.45-2.5,33.75,25.17,11.44,28.03,19.45-26.88,31.46-4.58,12.01,22.31-24.02,43.47-10.87,49.19,13.16,5.72,15.59-30.65,28.6-19.45,20.59,17.73-21.24,49.42-2.29,64.06,12.58,9.72,20.56-24.82,32.03-11.44,17.16,20.02-3.03,69.4-16.02,76.64-24.59,13.73-90.37-38.32-77.22-47.47,13.16-9.15,45.19,13.16,20.59-12.58-8.15-8.53-53.19-22.88-37.75-33.17,14.15-9.43,34.89,5.15,26.31-12.01-8.58-17.16-47.47-11.44-43.47-26.31,4-14.87,42.9,8.01,26.88-17.16Z"/>
      <path class="cls-13" d="M115.74,130.75s70.35,129.26,87.51,192.75"/>
      <polyline class="cls-13" points="112.31 141.04 124.32 146.19 124.32 138.18"/>
      <polyline class="cls-13" points="112.88 175.36 144.34 185.66 160.36 159.35"/>
      <polyline class="cls-13" points="128.33 219.4 166.08 232.56 182.09 188.52"/>
      <line class="cls-13" x1="187.81" y1="197.1" x2="175.8" y2="207.39"/>
      <polyline class="cls-13" points="145.48 269.16 192.39 289.18 210.69 246.86"/>
    </g>
    <g>
      <path class="cls-6" d="M45.24,178.29s-29.15-9.38-21.24-21.95c5.37-8.54,21.24,21.95,21.24,21.95Z"/>
      <path class="cls-6" d="M57.23,188.6s-25.47-26.63-12.46-33.8c8.84-4.87,12.46,33.8,12.46,33.8Z"/>
      <path class="cls-6" d="M65.24,197.2s-14.62-30.7,0-32.04c9.93-.91,0,32.04,0,32.04Z"/>
      <path class="cls-6" d="M78.62,211.18s-14.62-30.7,0-32.04c9.93-.91,0,32.04,0,32.04Z"/>
      <path class="cls-6" d="M90.67,227.23s-16.87-27.08-2.42-28.87c9.81-1.22,2.42,28.87,2.42,28.87Z"/>
      <path class="cls-6" d="M100.26,240.39s-11.81-24.45,1.43-23.24c8.99,.82-1.43,23.24-1.43,23.24Z"/>
      <path class="cls-6" d="M108.81,252.53s-9.11-21.77,2.31-20.1c7.76,1.13-2.31,20.1-2.31,20.1Z"/>
      <path class="cls-6" d="M56.79,187.69s-35.99,7.88-35.35-6.96c.44-10.08,35.35,6.96,35.35,6.96Z"/>
      <path class="cls-6" d="M64.48,197.47s-30.98,16.82-32.88,1.5c-1.29-10.41,32.88-1.5,32.88-1.5Z"/>
      <path class="cls-6" d="M77.92,210.96s-30.98,16.82-32.88,1.5c-1.29-10.41,32.88-1.5,32.88-1.5Z"/>
      <path class="cls-6" d="M89.83,226.78s-30.48,11.15-30.15-3.06c.23-9.65,30.15,3.06,30.15,3.06Z"/>
      <path class="cls-6" d="M100,239.92s-27.05,10.51-24.95-3.35c1.43-9.42,24.95,3.35,24.95,3.35Z"/>
      <path class="cls-6" d="M108.32,252.25s-22.35,8.69-20.62-2.77c1.18-7.78,20.62,2.77,20.62,2.77Z"/>
      <path class="cls-14" d="M33.65,168.25s68.44,52.13,94.47,126.42"/>
      <path class="cls-14" d="M28.75,182.91s16.63,5.12,26.65,4.76c0,0-2.39-11.99-8.06-23.61"/>
      <path class="cls-14" d="M36.28,200.22s21.4-.7,28.96-3.03l.21-23.36"/>
      <path class="cls-14" d="M52.4,214.27l25.52-3.31s1.06-13.39-.08-21"/>
      <path class="cls-14" d="M65.25,224.2s15.24,3.07,24.59,2.58c0,0-1.79-14.47-1.28-23.39"/>
      <path class="cls-14" d="M82.79,238.91l17.21,1.02s.6-8.48-.27-14.07"/>
      <path class="cls-14" d="M93.83,251.63s10.31-.92,14.98,.9c0,0,.59-12.86,1.19-13.79"/>
    </g>
    <g>
      <path class="cls-6" d="M52.85,285.66s-31.77,.2-28.57-12.2c2.18-8.43,28.57,12.2,28.57,12.2Z"/>
      <path class="cls-6" d="M65.4,291s-27.9-15.21-19.09-24.51c5.99-6.32,19.09,24.51,19.09,24.51Z"/>
      <path class="cls-6" d="M74.23,295.96s-20.05-21.4-8.39-26.32c7.92-3.34,8.39,26.32,8.39,26.32Z"/>
      <path class="cls-6" d="M88.89,303.95s-20.05-21.4-8.39-26.32c7.92-3.34,8.39,26.32,8.39,26.32Z"/>
      <path class="cls-6" d="M102.99,313.98s-20.95-17.83-9.55-23.09c7.74-3.57,9.55,23.09,9.55,23.09Z"/>
      <path class="cls-6" d="M64.79,290.36s-27.51,15.9-30.86,3.53c-2.28-8.4,30.86-3.53,30.86-3.53Z"/>
      <path class="cls-6" d="M73.68,296.38s-21.05,21.93-26.63,9.84c-3.79-8.21,26.63-9.84,26.63-9.84Z"/>
      <path class="cls-6" d="M88.25,303.95s-21.05,21.93-26.63,9.84c-3.79-8.21,26.63-9.84,26.63-9.84Z"/>
      <path class="cls-6" d="M102.18,313.83s-22.13,17.14-25.58,5.37c-2.34-7.99,25.58-5.37,25.58-5.37Z"/>
      <path class="cls-11" d="M40.7,280.44s69.88,24.92,110.71,79.14"/>
      <path class="cls-11" d="M40.51,293.77s15.01-.14,23.14-3.07c0,0-5.1-9.23-12.8-17.29"/>
      <path class="cls-11" d="M51.22,306.03s17.4-6.18,23-10.07l-5.94-19.25"/>
      <path class="cls-11" d="M68.15,313.35l20.1-9.4s-2.64-11.28-5.56-17.24"/>
      <path class="cls-11" d="M81.3,318.15s13.32-1.47,20.88-4.32c0,0-5.26-11.42-7.18-18.88"/>
    </g>
    <g>
      <path class="cls-7" d="M167.95,403.35s-31.71,14.36-47.01,4.5c-15.3-9.85,27.19-15.32,5.78-20.77-13.8-3.51-37.03,8.49-42.35-2.67-5.32-11.16,23.02-11.25,13.3-22.45-5.44-6.27-57.13-8.02-49.65-27.94,10.51-27.99,37.76-7.48,47.27,4.95,9.51,12.43,18.5,15.05,14.29-4.42-4.21-19.46,15.43-12.68,22.09,7.16,6.66,19.84,14.7,33.26,17.34,27.07s-4.87-26.31,5.16-26.16c16.01,.24,23.33,49,13.76,60.73Z"/>
      <path class="cls-12" d="M62.13,333.3s72.41,35.14,110.41,74.79"/>
      <path class="cls-12" d="M99.1,381.09l29.36-8.87s-4.27-17.23-9.46-37.47"/>
      <polyline class="cls-12" points="68.48 344.72 88.33 347.02 74.37 329.4"/>
      <line class="cls-12" x1="122.93" y1="349.75" x2="127.32" y2="341.05"/>
      <path class="cls-12" d="M131.67,401.89l28.93-4.25s2.27-19.48-2.59-37.51"/>
    </g>
    <g>
      <path class="cls-7" d="M193.63,409.08s34.49-4.67,42.22-21.14c7.73-16.47-31.17,1.45-15.92-14.54,9.83-10.31,35.89-12.46,34.47-24.74-1.42-12.28-25.48,2.69-23.19-11.96,1.28-8.2,44.16-37.12,27.24-50.03-23.77-18.14-35.97,13.71-37.43,29.29-1.46,15.58-7.69,22.57-14.46,3.85s-19.81-2.55-14.92,17.79,5.2,35.99-.32,32.15c-5.52-3.84-9.85-24.88-18.27-19.43-13.44,8.7,6.25,53.91,20.58,58.76Z"/>
      <path class="cls-12" d="M246.12,293.54s-42.7,68.22-53.86,122"/>
      <path class="cls-12" d="M240.15,353.66l-29.59,8.07s-5.53-16.86-11.88-36.78"/>
      <polyline class="cls-12" points="246.79 306.59 231.19 319.07 233.67 296.73"/>
      <line class="cls-12" x1="203.32" y1="339.76" x2="194.98" y2="334.71"/>
      <path class="cls-12" d="M223.59,388.58l-26.77,11.75s-12.26-15.3-17.72-33.16"/>
    </g>
    <g>
      <path class="cls-27" d="M191.97,401.18s15.28-35.51,9.41-53.29c-5.87-17.79-15.14-12.34-22.15,.17-7.01,12.51-6.75-3.12-5.1-21.82,1.65-18.7-4.91-33.54-12.89-35.74-7.99-2.2-9.14,25.27-15.65,18.92-6.51-6.35-3.14-47.65-24.69-52.18-21.55-4.53-29.55,5.66-35.14,17.94-5.59,12.27,15.61,30.68,29.33,43.26,13.72,12.58,3.91,15.99-5.51,11.2-9.42-4.8-18.52,13.73-4.39,20.93,14.13,7.19,37.22,16.07,35.13,22.09-2.09,6.02-12.7-4.6-12.46,4.57,.24,9.17,52.02,45.12,64.11,23.96Z"/>
      <path class="cls-10" d="M108.27,276.37s72.72,82.38,77.24,139.36"/>
      <polyline class="cls-10" points="125.58 281.61 133.8 308.21 107.93 293.07"/>
      <path class="cls-10" d="M161.98,308.45s-.27,28.03-2.5,39.03c0,0-23.13-2.14-44.95-6.28"/>
      <path class="cls-10" d="M192.9,352.14s-7,27.74-11.8,38.82c0,0-14.7,.34-40.36-8.46"/>
    </g>
  </g>
  <g>
    <ellipse class="cls-17" cx="436" cy="433.67" rx="15.33" ry="84.33" transform="translate(-17.24 849.28) rotate(-87.37)"/>
    <g>
      <g>
        <g>
          <path class="cls-16" d="M386.67,426.34s-22.03,10.29-15.33,10.67c11.17,.62,28-2.67,28-2.67l.67-8.67-13.33,.67Z"/>
          <path class="cls-1" d="M371.04,435.75c-.24-.01-.45-.04-.62-.07-.62,.74-.47,1.25,.91,1.32,11.17,.62,28-2.67,28-2.67l.08-.99c-4.55,.76-18.52,2.92-28.37,2.41Z"/>
        </g>
        <g>
          <path class="cls-16" d="M487.27,425.46s22.03,10.29,15.33,10.67c-11.17,.62-28-2.67-28-2.67l-.67-8.67,13.33,.67Z"/>
          <path class="cls-1" d="M502.9,434.88c.24-.01,.45-.04,.62-.07,.62,.74,.47,1.25-.91,1.32-11.17,.62-28-2.67-28-2.67l-.08-.99c4.55,.76,18.52,2.92,28.37,2.41Z"/>
        </g>
      </g>
      <g>
        <path class="cls-20" d="M395.51,244.09s-8,26.59-7.91,45.09c.17,33.36-1.8,132.9-1.8,132.9l15.12,1.53,14.05-124.5,8.31,.96,49.61,125.84,14.49-4.16s-36.97-135.37-41.33-154.03-50.54-23.61-50.54-23.61Z"/>
        <path class="cls-18" d="M408.01,297.23c-6.94-2.1-13.62-5.02-20.4-7.57,.15,33.82-1.8,132.42-1.8,132.42l15.12,1.53,14.04-124.4c-2.33-.63-4.65-1.27-6.95-1.97Z"/>
        <path class="cls-18" d="M447.27,272.67c-.53-2.09-.94-3.77-1.22-4.97-4.35-18.66-50.54-23.61-50.54-23.61,0,0-3.79,12.59-6.12,26.48,19.16,2.92,38.48,4.13,57.89,2.09Z"/>
        <polygon class="cls-24" points="382.89 419.64 402.52 420.99 402.67 426.34 383.94 427.68 382.89 419.64"/>
        <polygon class="cls-24" points="489.38 416.81 470.15 422.32 471.11 427.57 490.01 424.9 489.38 416.81"/>
      </g>
    </g>
    <g>
      <g>
        <path class="cls-23" d="M439.13,172.47l1.67-7.28s-13.46-1.18-11.13-13.65c2.33-12.47,11.36-40.57,11.36-40.57,0,0,22.76-7.73,36.86,9.1l-20.39,58.6-18.37-6.2Z"/>
        <g>
          <path class="cls-16" d="M431.78,142.7s-6.47,15.15-2.52,19.4,23.19,12.46,30.92,2.37c7.73-10.1,12.78-26.66,12.78-26.66l-4.1-6.78s-9.78,30.29-14.67,28.87c-4.89-1.42,5.29-8.54-3.16-13.25-4.94-2.76-14.36-4.58-16.09,.79-1.74,5.36-3.94,7.57-4.58,5.84-.63-1.74,1.42-10.57,1.42-10.57Z"/>
          <path class="cls-16" d="M466.33,138.44l1.42-4.73s-2.52-2.68,.32-13.25c0,0-23.82-.47-33.45-13.73l2.52,.32s-4.42-6.15-2.37-12.94c0,0,4.1,4.42,7.73,5.52,0,0-1.42-2.52-1.26-4.1,0,0,4.73,3.79,10.57,4.73,0,0-2.05-.79-4.42-3.47,0,0,8.68,3.47,17.35,4.1,8.68,.63,16.88,2.05,16.72,8.83,0,0,7.89-1.74,4.89,8.36-3,10.1-13.25,22.56-19.56,34.71l-.47-14.36Z"/>
        </g>
        <path class="cls-23" d="M468.39,149.8l4.73-13.09s4.26-5.84,5.52,.16-8.99,16.72-10.25,12.94Z"/>
      </g>
      <g>
        <path class="cls-3" d="M444.56,143.8c-2.15-.56-4.24-1.29-6.3-2.06,0,0,.3-.59,.3-.59,2.68-5.19,5.58-10.23,9.16-14.87-1.08,2.73-2.38,5.34-3.76,7.91-1.39,2.56-2.86,5.07-4.43,7.52l-.27-.79c1.8,.88,3.58,1.82,5.3,2.88h0Z"/>
        <path class="cls-16" d="M452.61,125.66c3.22-3.12,10.1-1.37,10.25,3.47-3.39-1.99-6.54-2.34-10.25-3.47h0Z"/>
        <path class="cls-16" d="M437.94,120.67c3.18-3.58,10.2-.87,9.62,4.05-3.15-2.22-5.92-3.09-9.62-4.05h0Z"/>
        <path class="cls-16" d="M444.85,127.97c-.02,4.87-6.47,5.42-7.44,.69-.22-1.25,.18-2.47,.85-3.37-.9,4.94,4.05,7.59,6.59,2.68h0Z"/>
        <path class="cls-16" d="M459.83,132.84c-.02,4.87-6.47,5.42-7.44,.69-.22-1.25,.18-2.47,.85-3.37-.9,4.94,4.05,7.59,6.59,2.68h0Z"/>
        <path class="cls-1" d="M436.46,148.04s12.06,2.31,16.18,2.51c0,0-6.43,5.33-16.18-2.51Z"/>
      </g>
    </g>
    <g>
      <g>
        <path class="cls-23" d="M409.58,194.55s-34.89,6.06-42.91,6.45c-8.02,.39-22.28-97.77-14.85-62.16,0,0,.38-20.33,3.32,.45,0,0,1.29-17.97,3.01-.23,0,0,2.16-14.27,2.93,2.1,0,0,6.31-8.79,.86,4.03,0,0,13.07,34.13,13.4,34.14,.33,.01,31.8-10.22,42.18-11.52,10.39-1.31,53.46,11.51,58.65,15.69,5.19,4.18,35.5,46.29,33.3,51.89-2.2,5.59-56.88,29.12-60.4,24.66s1.31-6.54,1.31-6.54l34.51-23.65-16.78-20.93-58.53-14.38Z"/>
        <path class="cls-26" d="M476.17,183.5c-.3-.24-.75-.52-1.29-.82-5.94,4.28-13.06,6.4-21.14,5.03-5.76-.98-10.99-3.46-14.93-7.86-1.43-1.59-2.76-3.25-4.1-4.91-1.31-.89-2.6-1.82-3.85-2.79-.92-.71-1.17-1.86-.97-2.95-.05-.06-.1-.12-.15-.17-5.31-1.01-9.72-1.52-12.22-1.2-5.54,.7-17.07,3.93-26.68,6.8,1.35,7.47,2.94,14.91,4.38,22.36,7.95-1.3,14.36-2.42,14.36-2.42l58.53,14.38,7.45,9.29c5.39-4.96,10.88-9.81,16.22-14.82-6.79-9.65-13.43-18.14-15.61-19.9Z"/>
      </g>
      <g>
        <path class="cls-4" d="M474.33,182c-2.22-1.65-6.8-3.53-14.67-5.67-3.11,2.35-5.66,3.41-9.75,3.74-8.43,.7-11.74-2.93-15.5-9.83-.08-.14-.12-.27-.17-.41-7.25-1.37-13.47-2.22-16.73-2.03-10.69,.63-24.51,4.52-24.51,4.52l3.67,26.67,7.77-.63s-10.21,44-15.97,65.82c0,0,21.05,8.41,59.42,8.07l17.5-61.76,5.17,4.85,19.44-16.69s-6.16-9.58-15.67-16.67Z"/>
        <path class="cls-17" d="M423.36,235.22c-9.68,2.26-19.33,4.15-29.02,5.63-2.09,8.58-4.17,16.92-5.87,23.35,0,0,21.05,8.41,59.42,8.07l15.19-53.62c-10.98,9.2-25.66,13.28-39.72,16.57Z"/>
      </g>
      <path class="cls-23" d="M456.26,242.71c-14.73-8.02-3.33-.12-3.33-.12-17.41-2.77-1.9,1.93-1.9,1.93-19.25,2.16-.41,2.32-.41,2.32-17.96,8.21,.06,3,.06,3,0,0-2.5,6.71-2.26,9.38,.24,2.68,6.9,.84,6.9,.84,0,0-2.01,.71,.45-7.87,2.47-8.59,.5-9.49,.5-9.49Z"/>
    </g>
  </g>
  <g>
    <ellipse class="cls-17" cx="232.67" cy="433.67" rx="84.33" ry="15.33" transform="translate(-19.68 11.15) rotate(-2.63)"/>
    <g>
      <g>
        <path class="cls-20" d="M175.53,135.36s14.17-16.13,31.17-4.13,1.58,24.63,12.33,37.63-2.75,22.75-2.75,22.75l-21.5-1.25-19.25-55Z"/>
        <g>
          <g>
            <path class="cls-22" d="M184.78,243.86c1.89,3.78-18.56-53.28-20.5-52.5,7.5-3,49.59-9.76,55.09-2.76s-.09,35.76-4.59,54.26-30,1-30,1Z"/>
            <path class="cls-22" d="M179.03,156.86s4.75,25.25,2.25,27.75-17.5,7.5-17.5,7.5l47.22-6.1-13.92-1.4c-2.5-3,.2-26,.2-26l-18.25-1.75Z"/>
            <path class="cls-25" d="M182,181.09c4.48,1.81,9.59,2.48,14.67,2.71-1.75-5.02,.61-25.2,.61-25.2l-18.25-1.75s3.13,16.63,2.97,24.24Z"/>
          </g>
          <path class="cls-22" d="M191.19,136.85s-16.89,2.85-15.65,20.64c1,14.37,11.25,23.37,23,22.37,11.5-.98,13.36-19.84,11.75-28.75-1.61-8.91-9.82-15.47-19.1-14.25Z"/>
        </g>
        <g>
          <path class="cls-20" d="M184.78,139.11s4,8-2.25,15.5c0,0,.15,1.25,1.25,9.25,1,7.25,.75,15.75-2.5,21.5s-14.37,2-23.37,13.5c0,0-9.86-11.2-5.64-20.58,3.1-6.89,12.64-9.17,11.26-21.35-1.75-15.5,6-25.06,14.5-21.31s6.75,3.5,6.75,3.5Z"/>
          <path class="cls-20" d="M182.78,137.61s7.14,10.87,22.63,8.4l-5.38-3.4s10.53,3.74,10.78,5.99c0,0-1.28-4.24-2.78-8.49s-19.75-11.25-25.25-2.5Z"/>
        </g>
      </g>
      <g>
        <path class="cls-16" d="M188.41,159.23c-2.03-4.75,3.93-7.98,6.9-3.83,.74,1.11,.88,2.46,.61,3.62-1.27-5.17-7.11-5.63-7.51,.21h0Z"/>
        <path class="cls-5" d="M200.66,158.04c1.63,1.75,2.91,3.75,4.09,5.82-1.1,1.21-2.24,2.38-3.57,3.38,.74-1.36,1.65-2.58,2.61-3.76l-.05,.57c-1.21-1.91-2.32-3.86-3.09-6h0Z"/>
        <path class="cls-1" d="M191.75,169.32h14.5s-5,7.75-14.5,0Z"/>
        <path class="cls-20" d="M185.47,150.82c1.78-4.51,8.54-4.36,11.14-.7-3.91-.78-7.34-1.37-11.14,.7h0Z"/>
        <path class="cls-16" d="M202.87,159.69c-1.05-2.18-.12-5.7,2.84-5.73,1.43,.02,2.63,.99,3.14,2.1,.54,1.12,.56,2.34,.3,3.42-1.4-5.23-5.64-5.55-6.28,.2h0Z"/>
        <path class="cls-20" d="M201.54,151.29c1.11-4.84,7.58-4.93,9.74-.8-1.68-.41-3.38-1.08-5.07-1-1.71,.07-3.13,.85-4.67,1.81h0Z"/>
      </g>
    </g>
    <g>
      <g>
        <g>
          <path class="cls-22" d="M283.9,417c-1.51-17.43-6.9-55.91-25.62-72.81,0,0-1.83-34.56-9.59-63.87-26.38,2.18-52.38,7.25-78.34,12.68-1.66,31.71-.13,94.91,17.91,138.53-6.03,6.95-19.57,21.51,1.77,6.57v.19l1.94-3.56s14.14-48.51,2.15-82.92c0,0,13.43-38.03,14.88-57.48,0,0,49.59,108.58,75.23,131.33v.1c20.19,14.13,3.27-4.82-.33-8.77Z"/>
          <path class="cls-1" d="M185.76,434.48s.22,3.78,6.27,.05c0,0-.39,3.28-.93,3.82s-12.78,9-13.65,7c-.86-2,8.31-10.87,8.31-10.87Z"/>
          <path class="cls-1" d="M278.41,419.67s2.64,4,5.53,6.76c.79,.76,8.42,6.89,10.51,4.8,2.09-2.09-7.99-11.56-7.99-11.56,0,0,1.54,3.57-1.17,3.57s-6.89-3.57-6.89-3.57Z"/>
        </g>
        <path class="cls-21" d="M258.28,344.19s-1.83-34.56-9.59-63.87c-26.38,2.18-52.38,7.25-78.34,12.68-.94,17.91-.85,45.87,2.65,74.67,8.45,1.84,16.84,3.74,25.28,4.86-.62-7.2-1.91-14.26-4.16-20.72,0,0,13.43-38.03,14.88-57.48,0,0,16.12,35.29,34.73,69.84,.43-.14,.87-.26,1.31-.4,7.29-2.39,14.84-5.37,21.52-9.55-2.42-3.81-5.16-7.23-8.27-10.04Z"/>
      </g>
      <g>
        <path class="cls-8" d="M184.03,240.36s-18.75,14.5-25.75,51c-6.32,32.96-3.17,61.67-3.17,61.67,0,0,72.67,15.83,121.67-21.17,0,0-22.5-82-59.5-97,0,0-16.75,10-33.25,5.5Z"/>
        <path class="cls-21" d="M219.4,323.96c-16.32-3.19-31.52-11.12-42.08-24.2-5.33-6.61-11.69-13.89-15.64-21.94-1.29,4.13-2.45,8.63-3.39,13.54-6.32,32.96-3.17,61.67-3.17,61.67,0,0,72.67,15.83,121.67-21.17,0,0-1.77-6.47-5.15-16.1-15.96,8.18-34.02,11.76-52.24,8.2Z"/>
      </g>
    </g>
    <g>
      <g>
        <path class="cls-22" d="M227.28,188.86s16,7,30,7.75c0,0,14.75-2.88,29.87-2.88s30.87,.88,17.37,1.62c0,0,14.75,2.25,.75,1.75,0,0,11.5,1.5,.25,1.75,0,0,8.5,0,.25,1.62-9.16,1.8-40.75,11.62-51.25,10.38-7.98-.95-37.75-6.75-37.75-6.75l10.5-15.25Z"/>
        <path class="cls-25" d="M231.23,190.43c-2.46-.92-3.94-1.57-3.94-1.57l-10.5,15.25s4.28,.83,10.02,1.92c1.69-5.12,3.15-10.33,4.42-15.6Z"/>
        <path class="cls-22" d="M299.66,195.11s5.62-8.38,2-.62l-1.5,.62"/>
      </g>
      <g>
        <path class="cls-1" d="M170.78,188.61s9.75,15.25,26.75,13.25,16.5-18.25,16.5-18.25c0,0,8.75-.75,16.25,5,0,0-3.5,8.5-7.25,12.25,0,0,11.25,16.25-4.5,26.25l1.25,7.5s-14,6.25-39,4.5c0,0-.5-17.25-3.5-27,0,0-12.75,4.88-18.25,5.5,0,0-9.25-24.75,11.75-29Z"/>
        <path class="cls-19" d="M226.89,214.08c-4.64,2.38-9.6,4.02-15.18,4.32-11.13,.6-23.51,0-33.94-4.58,2.57,9.92,3.02,25.28,3.02,25.28,25,1.75,39-4.5,39-4.5l-1.25-7.5c6.05-3.84,8.11-8.61,8.36-13.02Z"/>
      </g>
      <g>
        <g>
          <path class="cls-22" d="M178.53,210.61s11.12,14.75,19.62,21.25c0,0,16.37-1.88,31.5-1.88s30.87,.88,17.37,1.62c0,0,14.75,2.25,.75,1.75,0,0,11.5,1.5,.25,1.75,0,0,8.5,0,.25,1.62-9.16,1.8-45.98,12.72-59.12,10.12-9.5-1.88-28.75-29.5-28.75-29.5l18.12-6.75Z"/>
          <path class="cls-22" d="M242.16,231.36s5.62-8.38,2-.62l-1.5,.62"/>
        </g>
        <path class="cls-25" d="M180.18,212.73c-1.04-1.31-1.65-2.12-1.65-2.12l-18.12,6.75s1.18,1.69,3.09,4.25c5.74-2.6,11.33-5.51,16.69-8.88Z"/>
      </g>
    </g>
  </g>
  <polygon class="cls-23" points="201.02 89.6 450.34 88.1 461.5 22.74 197.5 14 201.02 89.6"/>
  <text class="cls-2" transform="translate(215.27 61.64) rotate(2.55)"><tspan x="0" y="0">BIENVENIDO</tspan></text>
</svg>